<?xml version="1.0" encoding="UTF-8" standalone="no"?>
<!DOCTYPE svg PUBLIC "-//W3C//DTD SVG 1.1//EN"
 "http://www.w3.org/Graphics/SVG/1.1/DTD/svg11.dtd">
<!-- Generated by graphviz version 2.30.1 (20140821.0912)
 -->
<!-- Title: Graphical Class Hierarchy Pages: 1 -->
<svg width="224pt" height="66pt"
 viewBox="0.00 0.00 224.00 66.00" xmlns="http://www.w3.org/2000/svg" xmlns:xlink="http://www.w3.org/1999/xlink">
<g id="graph0" class="graph" transform="scale(1 1) rotate(0) translate(4 62)">
<title>Graphical Class Hierarchy</title>
<polygon fill="white" stroke="white" points="-4,5 -4,-62 221,-62 221,5 -4,5"/>
<!-- Node1 -->
<g id="node1" class="node"><title>Node1</title>
<polygon fill="white" stroke="#bfbfbf" points="0.5,-19.5 0.5,-38.5 43.5,-38.5 43.5,-19.5 0.5,-19.5"/>
<text text-anchor="middle" x="22" y="-26.5" font-family="Helvetica,sans-Serif" font-size="10.00">object</text>
</g>
<!-- Node2 -->
<g id="node2" class="node"><title>Node2</title>
<g id="a_node2"><a xlink:href="db/ddf/classqasm__lexer_1_1OqasmLexer.html" target="_top" xlink:title="qasm_lexer.OqasmLexer">
<polygon fill="white" stroke="black" points="85.5,-38.5 85.5,-57.5 210.5,-57.5 210.5,-38.5 85.5,-38.5"/>
<text text-anchor="middle" x="148" y="-45.5" font-family="Helvetica,sans-Serif" font-size="10.00">qasm_lexer.OqasmLexer</text>
</a>
</g>
</g>
<!-- Node1&#45;&gt;Node2 -->
<g id="edge1" class="edge"><title>Node1&#45;&gt;Node2</title>
<path fill="none" stroke="midnightblue" d="M53.6622,-33.6982C63.3554,-35.1835 74.4351,-36.8812 85.4938,-38.5757"/>
<polygon fill="midnightblue" stroke="midnightblue" points="54.1696,-30.2352 43.7548,-32.1802 53.1093,-37.1545 54.1696,-30.2352"/>
</g>
<!-- Node3 -->
<g id="node3" class="node"><title>Node3</title>
<g id="a_node3"><a xlink:href="db/d1a/classqasm__parser_1_1OqasmParser.html" target="_top" xlink:title="qasm_parser.OqasmParser">
<polygon fill="white" stroke="black" points="80,-0.5 80,-19.5 216,-19.5 216,-0.5 80,-0.5"/>
<text text-anchor="middle" x="148" y="-7.5" font-family="Helvetica,sans-Serif" font-size="10.00">qasm_parser.OqasmParser</text>
</a>
</g>
</g>
<!-- Node1&#45;&gt;Node3 -->
<g id="edge2" class="edge"><title>Node1&#45;&gt;Node3</title>
<path fill="none" stroke="midnightblue" d="M53.8428,-24.2741C63.3355,-22.8196 74.1449,-21.1633 84.956,-19.5067"/>
<polygon fill="midnightblue" stroke="midnightblue" points="53.1093,-20.8455 43.7548,-25.8198 54.1696,-27.7648 53.1093,-20.8455"/>
</g>
</g>
</svg>
