<?xml version="1.0" encoding="UTF-8" standalone="no"?>
<!DOCTYPE svg PUBLIC "-//W3C//DTD SVG 1.1//EN"
 "http://www.w3.org/Graphics/SVG/1.1/DTD/svg11.dtd">
<!-- Generated by graphviz version 2.30.1 (20140821.0912)
 -->
<!-- Title: Graphical Class Hierarchy Pages: 1 -->
<svg width="254pt" height="164pt"
 viewBox="0.00 0.00 254.00 164.00" xmlns="http://www.w3.org/2000/svg" xmlns:xlink="http://www.w3.org/1999/xlink">
<g id="graph0" class="graph" transform="scale(1 1) rotate(0) translate(4 160)">
<title>Graphical Class Hierarchy</title>
<polygon fill="white" stroke="white" points="-4,5 -4,-160 251,-160 251,5 -4,5"/>
<!-- Node1 -->
<g id="node1" class="node"><title>Node1</title>
<polygon fill="white" stroke="#bfbfbf" points="0,-60.5 0,-79.5 60,-79.5 60,-60.5 0,-60.5"/>
<text text-anchor="middle" x="30" y="-67.5" font-family="Helvetica,sans-Serif" font-size="10.00">Exception</text>
</g>
<!-- Node2 -->
<g id="node2" class="node"><title>Node2</title>
<g id="a_node2"><a xlink:href="d0/d68/classqasm__parser_1_1ImplementationError.html" target="_top" xlink:title="qasm_parser.Implementation\lError">
<polygon fill="white" stroke="black" points="99.5,-126 99.5,-156 242.5,-156 242.5,-126 99.5,-126"/>
<text text-anchor="start" x="107.5" y="-144" font-family="Helvetica,sans-Serif" font-size="10.00">qasm_parser.Implementation</text>
<text text-anchor="middle" x="171" y="-133" font-family="Helvetica,sans-Serif" font-size="10.00">Error</text>
</a>
</g>
</g>
<!-- Node1&#45;&gt;Node2 -->
<g id="edge1" class="edge"><title>Node1&#45;&gt;Node2</title>
<path fill="none" stroke="midnightblue" d="M50.1782,-85.8219C62.646,-95.5235 79.583,-107.643 96,-116 103.251,-119.691 111.168,-123.025 119.041,-125.967"/>
<polygon fill="midnightblue" stroke="midnightblue" points="52.3255,-83.0577 42.3219,-79.5678 47.9657,-88.5343 52.3255,-83.0577"/>
</g>
<!-- Node3 -->
<g id="node3" class="node"><title>Node3</title>
<g id="a_node3"><a xlink:href="d1/dbb/classqasm__parser_1_1InvalidParameterNumber.html" target="_top" xlink:title="qasm_parser.InvalidParameter\lNumber">
<polygon fill="white" stroke="black" points="96.5,-77 96.5,-107 245.5,-107 245.5,-77 96.5,-77"/>
<text text-anchor="start" x="104.5" y="-95" font-family="Helvetica,sans-Serif" font-size="10.00">qasm_parser.InvalidParameter</text>
<text text-anchor="middle" x="171" y="-84" font-family="Helvetica,sans-Serif" font-size="10.00">Number</text>
</a>
</g>
</g>
<!-- Node1&#45;&gt;Node3 -->
<g id="edge2" class="edge"><title>Node1&#45;&gt;Node3</title>
<path fill="none" stroke="midnightblue" d="M70.1073,-76.1896C78.3101,-77.4879 87.2162,-78.8975 96.2186,-80.3224"/>
<polygon fill="midnightblue" stroke="midnightblue" points="70.5632,-72.7183 60.139,-74.6119 69.4688,-79.6322 70.5632,-72.7183"/>
</g>
<!-- Node4 -->
<g id="node4" class="node"><title>Node4</title>
<g id="a_node4"><a xlink:href="d6/da2/classqasm__parser_1_1ParsingEOF.html" target="_top" xlink:title="qasm_parser.ParsingEOF">
<polygon fill="white" stroke="black" points="106.5,-38.5 106.5,-57.5 235.5,-57.5 235.5,-38.5 106.5,-38.5"/>
<text text-anchor="middle" x="171" y="-45.5" font-family="Helvetica,sans-Serif" font-size="10.00">qasm_parser.ParsingEOF</text>
</a>
</g>
</g>
<!-- Node1&#45;&gt;Node4 -->
<g id="edge3" class="edge"><title>Node1&#45;&gt;Node4</title>
<path fill="none" stroke="midnightblue" d="M70.1154,-63.8091C82.4951,-61.8497 96.4763,-59.6368 109.972,-57.5008"/>
<polygon fill="midnightblue" stroke="midnightblue" points="69.4688,-60.3678 60.139,-65.3881 70.5632,-67.2817 69.4688,-60.3678"/>
</g>
<!-- Node5 -->
<g id="node5" class="node"><title>Node5</title>
<g id="a_node5"><a xlink:href="d7/dee/classqasm__parser_1_1ParsingError.html" target="_top" xlink:title="qasm_parser.ParsingError">
<polygon fill="white" stroke="black" points="106,-0.5 106,-19.5 236,-19.5 236,-0.5 106,-0.5"/>
<text text-anchor="middle" x="171" y="-7.5" font-family="Helvetica,sans-Serif" font-size="10.00">qasm_parser.ParsingError</text>
</a>
</g>
</g>
<!-- Node1&#45;&gt;Node5 -->
<g id="edge4" class="edge"><title>Node1&#45;&gt;Node5</title>
<path fill="none" stroke="midnightblue" d="M51.9869,-54.398C64.2856,-45.8734 80.4227,-35.7155 96,-29 104.648,-25.2718 114.191,-22.1501 123.468,-19.5853"/>
<polygon fill="midnightblue" stroke="midnightblue" points="49.8906,-51.594 43.7728,-60.244 53.9496,-57.2971 49.8906,-51.594"/>
</g>
</g>
</svg>
