<?xml version="1.0" encoding="UTF-8" standalone="no"?>
<!DOCTYPE svg PUBLIC "-//W3C//DTD SVG 1.1//EN"
 "http://www.w3.org/Graphics/SVG/1.1/DTD/svg11.dtd">
<!-- Generated by graphviz version 2.30.1 (20140821.0912)
 -->
<!-- Title: qasm_lexer.OqasmLexer Pages: 1 -->
<svg width="132pt" height="380pt"
 viewBox="0.00 0.00 132.00 380.00" xmlns="http://www.w3.org/2000/svg" xmlns:xlink="http://www.w3.org/1999/xlink">
<g id="graph0" class="graph" transform="scale(1 1) rotate(0) translate(4 376)">
<title>qasm_lexer.OqasmLexer</title>
<polygon fill="white" stroke="white" points="-4,5 -4,-376 129,-376 129,5 -4,5"/>
<!-- Node1 -->
<g id="node1" class="node"><title>Node1</title>
<polygon fill="#bfbfbf" stroke="black" points="-0.5,-0.5 -0.5,-277.5 124.5,-277.5 124.5,-0.5 -0.5,-0.5"/>
<text text-anchor="middle" x="62" y="-265.5" font-family="Helvetica,sans-Serif" font-size="10.00">qasm_lexer.OqasmLexer</text>
<polyline fill="none" stroke="black" points="-0.5,-258.5 124.5,-258.5 "/>
<text text-anchor="start" x="7.5" y="-246.5" font-family="Helvetica,sans-Serif" font-size="10.00">+ tokens</text>
<text text-anchor="start" x="7.5" y="-235.5" font-family="Helvetica,sans-Serif" font-size="10.00">+ reserved</text>
<text text-anchor="start" x="7.5" y="-224.5" font-family="Helvetica,sans-Serif" font-size="10.00">+ lexer</text>
<text text-anchor="start" x="7.5" y="-213.5" font-family="Helvetica,sans-Serif" font-size="10.00">+ literals</text>
<text text-anchor="start" x="7.5" y="-202.5" font-family="Helvetica,sans-Serif" font-size="10.00">+ reserved</text>
<text text-anchor="start" x="7.5" y="-191.5" font-family="Helvetica,sans-Serif" font-size="10.00">+ tokens</text>
<text text-anchor="start" x="7.5" y="-180.5" font-family="Helvetica,sans-Serif" font-size="10.00">+ t_ignore</text>
<polyline fill="none" stroke="black" points="-0.5,-173.5 124.5,-173.5 "/>
<text text-anchor="start" x="7.5" y="-161.5" font-family="Helvetica,sans-Serif" font-size="10.00">+ __init__()</text>
<text text-anchor="start" x="7.5" y="-150.5" font-family="Helvetica,sans-Serif" font-size="10.00">+ t_REAL()</text>
<text text-anchor="start" x="7.5" y="-139.5" font-family="Helvetica,sans-Serif" font-size="10.00">+ t_NNINTEGER()</text>
<text text-anchor="start" x="7.5" y="-128.5" font-family="Helvetica,sans-Serif" font-size="10.00">+ t_ASSIGN()</text>
<text text-anchor="start" x="7.5" y="-117.5" font-family="Helvetica,sans-Serif" font-size="10.00">+ t_MATCHES()</text>
<text text-anchor="start" x="7.5" y="-106.5" font-family="Helvetica,sans-Serif" font-size="10.00">+ t_IGNORE()</text>
<text text-anchor="start" x="7.5" y="-95.5" font-family="Helvetica,sans-Serif" font-size="10.00">+ t_INCLUDE()</text>
<text text-anchor="start" x="7.5" y="-84.5" font-family="Helvetica,sans-Serif" font-size="10.00">+ t_FORMAT()</text>
<text text-anchor="start" x="7.5" y="-73.5" font-family="Helvetica,sans-Serif" font-size="10.00">+ t_COMMENT()</text>
<text text-anchor="start" x="7.5" y="-62.5" font-family="Helvetica,sans-Serif" font-size="10.00">+ t_CX()</text>
<text text-anchor="start" x="7.5" y="-51.5" font-family="Helvetica,sans-Serif" font-size="10.00">+ t_U()</text>
<text text-anchor="start" x="7.5" y="-40.5" font-family="Helvetica,sans-Serif" font-size="10.00">+ t_ID()</text>
<text text-anchor="start" x="7.5" y="-29.5" font-family="Helvetica,sans-Serif" font-size="10.00">+ t_newline()</text>
<text text-anchor="start" x="7.5" y="-18.5" font-family="Helvetica,sans-Serif" font-size="10.00">+ t_error()</text>
<text text-anchor="start" x="7.5" y="-7.5" font-family="Helvetica,sans-Serif" font-size="10.00">+ build()</text>
</g>
<!-- Node2 -->
<g id="node2" class="node"><title>Node2</title>
<polygon fill="white" stroke="#bfbfbf" points="40.5,-314.5 40.5,-371.5 83.5,-371.5 83.5,-314.5 40.5,-314.5"/>
<text text-anchor="middle" x="62" y="-359.5" font-family="Helvetica,sans-Serif" font-size="10.00">object</text>
<polyline fill="none" stroke="#bfbfbf" points="40.5,-352.5 83.5,-352.5 "/>
<text text-anchor="middle" x="62" y="-340.5" font-family="Helvetica,sans-Serif" font-size="10.00"> </text>
<polyline fill="none" stroke="#bfbfbf" points="40.5,-333.5 83.5,-333.5 "/>
<text text-anchor="middle" x="62" y="-321.5" font-family="Helvetica,sans-Serif" font-size="10.00"> </text>
</g>
<!-- Node2&#45;&gt;Node1 -->
<g id="edge1" class="edge"><title>Node2&#45;&gt;Node1</title>
<path fill="none" stroke="midnightblue" d="M62,-304.265C62,-296.182 62,-287.193 62,-277.704"/>
<polygon fill="none" stroke="midnightblue" points="58.5001,-304.336 62,-314.336 65.5001,-304.336 58.5001,-304.336"/>
</g>
</g>
</svg>
