<?xml version="1.0" encoding="UTF-8" standalone="no"?>
<!DOCTYPE svg PUBLIC "-//W3C//DTD SVG 1.1//EN"
 "http://www.w3.org/Graphics/SVG/1.1/DTD/svg11.dtd">
<!-- Generated by graphviz version 2.30.1 (20140821.0912)
 -->
<!-- Title: qasm_parser.ImplementationError Pages: 1 -->
<svg width="150pt" height="172pt"
 viewBox="0.00 0.00 150.00 172.00" xmlns="http://www.w3.org/2000/svg" xmlns:xlink="http://www.w3.org/1999/xlink">
<g id="graph0" class="graph" transform="scale(1 1) rotate(0) translate(4 168)">
<title>qasm_parser.ImplementationError</title>
<polygon fill="white" stroke="white" points="-4,5 -4,-168 147,-168 147,5 -4,5"/>
<!-- Node1 -->
<g id="node1" class="node"><title>Node1</title>
<polygon fill="#bfbfbf" stroke="black" points="-0.5,-1 -0.5,-69 142.5,-69 142.5,-1 -0.5,-1"/>
<text text-anchor="start" x="7.5" y="-57" font-family="Helvetica,sans-Serif" font-size="10.00">qasm_parser.Implementation</text>
<text text-anchor="middle" x="71" y="-46" font-family="Helvetica,sans-Serif" font-size="10.00">Error</text>
<polyline fill="none" stroke="black" points="-0.5,-39 142.5,-39 "/>
<text text-anchor="middle" x="71" y="-27" font-family="Helvetica,sans-Serif" font-size="10.00"> </text>
<polyline fill="none" stroke="black" points="-0.5,-20 142.5,-20 "/>
<text text-anchor="start" x="7.5" y="-8" font-family="Helvetica,sans-Serif" font-size="10.00">+ __init__()</text>
</g>
<!-- Node2 -->
<g id="node2" class="node"><title>Node2</title>
<polygon fill="white" stroke="#bfbfbf" points="41,-106.5 41,-163.5 101,-163.5 101,-106.5 41,-106.5"/>
<text text-anchor="middle" x="71" y="-151.5" font-family="Helvetica,sans-Serif" font-size="10.00">Exception</text>
<polyline fill="none" stroke="#bfbfbf" points="41,-144.5 101,-144.5 "/>
<text text-anchor="middle" x="71" y="-132.5" font-family="Helvetica,sans-Serif" font-size="10.00"> </text>
<polyline fill="none" stroke="#bfbfbf" points="41,-125.5 101,-125.5 "/>
<text text-anchor="middle" x="71" y="-113.5" font-family="Helvetica,sans-Serif" font-size="10.00"> </text>
</g>
<!-- Node2&#45;&gt;Node1 -->
<g id="edge1" class="edge"><title>Node2&#45;&gt;Node1</title>
<path fill="none" stroke="midnightblue" d="M71,-96.3023C71,-87.3951 71,-77.9608 71,-69.2659"/>
<polygon fill="none" stroke="midnightblue" points="67.5001,-96.4407 71,-106.441 74.5001,-96.4408 67.5001,-96.4407"/>
</g>
</g>
</svg>
