<?xml version="1.0" encoding="UTF-8" standalone="no"?>
<!DOCTYPE svg PUBLIC "-//W3C//DTD SVG 1.1//EN"
 "http://www.w3.org/Graphics/SVG/1.1/DTD/svg11.dtd">
<!-- Generated by graphviz version 2.30.1 (20140821.0912)
 -->
<!-- Title: qasm_parser.ParsingError Pages: 1 -->
<svg width="138pt" height="172pt"
 viewBox="0.00 0.00 138.00 172.00" xmlns="http://www.w3.org/2000/svg" xmlns:xlink="http://www.w3.org/1999/xlink">
<g id="graph0" class="graph" transform="scale(1 1) rotate(0) translate(4 168)">
<title>qasm_parser.ParsingError</title>
<polygon fill="white" stroke="white" points="-4,5 -4,-168 135,-168 135,5 -4,5"/>
<!-- Node1 -->
<g id="node1" class="node"><title>Node1</title>
<polygon fill="#bfbfbf" stroke="black" points="0,-1 0,-69 130,-69 130,-1 0,-1"/>
<text text-anchor="middle" x="65" y="-57" font-family="Helvetica,sans-Serif" font-size="10.00">qasm_parser.ParsingError</text>
<polyline fill="none" stroke="black" points="0,-50 130,-50 "/>
<text text-anchor="start" x="8" y="-38" font-family="Helvetica,sans-Serif" font-size="10.00">+ token</text>
<polyline fill="none" stroke="black" points="0,-31 130,-31 "/>
<text text-anchor="start" x="8" y="-19" font-family="Helvetica,sans-Serif" font-size="10.00">+ __init__()</text>
<text text-anchor="start" x="8" y="-8" font-family="Helvetica,sans-Serif" font-size="10.00">+ __str__()</text>
</g>
<!-- Node2 -->
<g id="node2" class="node"><title>Node2</title>
<polygon fill="white" stroke="#bfbfbf" points="35,-106.5 35,-163.5 95,-163.5 95,-106.5 35,-106.5"/>
<text text-anchor="middle" x="65" y="-151.5" font-family="Helvetica,sans-Serif" font-size="10.00">Exception</text>
<polyline fill="none" stroke="#bfbfbf" points="35,-144.5 95,-144.5 "/>
<text text-anchor="middle" x="65" y="-132.5" font-family="Helvetica,sans-Serif" font-size="10.00"> </text>
<polyline fill="none" stroke="#bfbfbf" points="35,-125.5 95,-125.5 "/>
<text text-anchor="middle" x="65" y="-113.5" font-family="Helvetica,sans-Serif" font-size="10.00"> </text>
</g>
<!-- Node2&#45;&gt;Node1 -->
<g id="edge1" class="edge"><title>Node2&#45;&gt;Node1</title>
<path fill="none" stroke="midnightblue" d="M65,-96.3023C65,-87.3951 65,-77.9608 65,-69.2659"/>
<polygon fill="none" stroke="midnightblue" points="61.5001,-96.4407 65,-106.441 68.5001,-96.4408 61.5001,-96.4407"/>
</g>
</g>
</svg>
